{
  "accessors": [
    {
      "bufferView": 3,
      "componentType": 5126,
      "count": 1374,
      "max": [
        0.8651736974716187,
        1.680260181427002,
        0.1769298017024994
      ],
      "min": [
        -0.8651734590530396,
        0.01233399473130703,
        -0.1258784830570221
      ],
      "type": "VEC3"
    },
    {
      "bufferView": 3,
      "byteOffset": 16488,
      "componentType": 5126,
      "count": 1374,
      "max": [
        0.9948092699050903,
        0.9901331067085266,
        0.9998394846916199
      ],
      "min": [
        -0.9948088526725769,
        -0.9946112036705017,
        -0.9868024587631226
      ],
      "type": "VEC3"
    },
    {
      "bufferView": 2,
      "componentType": 5126,
      "count": 1374,
      "max": [
        0.9935434460639954,
        0.9918807744979858
      ],
      "min": [
        0.006710130721330643,
        0.012809813022613525
      ],
      "type": "VEC2"
    },
    {
      "bufferView": 1,
      "componentType": 5125,
      "count": 2010,
      "type": "SCALAR"
    },
    {
      "bufferView": 5,
      "componentType": 5126,
      "count": 37,
      "max": [
        100.0,
        0.997100830078125,
        0.676760733127594,
        0.0,
        0.9992990493774414,
        100.0,
        0.21799319982528687,
        0.0,
        0.6378456950187683,
        0.9578037261962891,
        100.0,
        0.0,
        1.5108163356781006,
        0.9258392453193665,
        1.0582984685897827,
        1.0
      ],
      "min": [
        -0.6863282322883606,
        -0.9971008896827698,
        -0.6767605543136597,
        0.0,
        -0.9992992281913757,
        -0.9999998211860657,
        -0.9492717385292053,
        0.0,
        -0.6378458738327026,
        -0.4418943524360657,
        -0.9999991655349731,
        0.0,
        -1.5108164548873901,
        -1.449191927909851,
        -0.24066492915153503,
        1.0
      ],
      "type": "MAT4"
    },
    {
      "bufferView": 0,
      "componentType": 5123,
      "count": 1374,
      "type": "VEC4"
    },
    {
      "bufferView": 4,
      "componentType": 5126,
      "count": 1374,
      "max": [
        1.0,
        0.49261969327926636,
        0.22744618356227875,
        0.1595160812139511
      ],
      "min": [
        0.4405492842197418,
        0.0,
        0.0,
        0.0
      ],
      "type": "VEC4"
    }
  ],
  "asset": {
    "extras": {
      "author": "yeshua.nel (https://sketchfab.com/yeshua.nel)",
      "license": "SKETCHFAB Standard (https://sketchfab.com/licenses)",
      "source": "https://sketchfab.com/3d-models/low-poly-male-model-rigged-bf078a475e59424c84f64d32081774e7",
      "title": "Low Poly Male Model - Rigged"
    },
    "generator": "Sketchfab-16.12.0",
    "version": "2.0"
  },
  "bufferViews": [
    {
      "buffer": 0,
      "byteLength": 10992,
      "byteStride": 8,
      "name": "shortBufferViews",
      "target": 34962
    },
    {
      "buffer": 0,
      "byteLength": 8040,
      "byteOffset": 10992,
      "name": "floatBufferViews",
      "target": 34963
    },
    {
      "buffer": 0,
      "byteLength": 10992,
      "byteOffset": 19032,
      "byteStride": 8,
      "name": "floatBufferViews",
      "target": 34962
    },
    {
      "buffer": 0,
      "byteLength": 32976,
      "byteOffset": 30024,
      "byteStride": 12,
      "name": "floatBufferViews",
      "target": 34962
    },
    {
      "buffer": 0,
      "byteLength": 21984,
      "byteOffset": 63000,
      "byteStride": 16,
      "name": "floatBufferViews",
      "target": 34962
    },
    {
      "buffer": 0,
      "byteLength": 2368,
      "byteOffset": 84984,
      "name": "floatBufferViews"
    }
  ],
  "buffers": [
    {
      "byteLength": 87352,
      "uri": "scene.bin"
    }
  ],
  "materials": [
    {
      "doubleSided": true,
      "name": "Scene_-_Root",
      "pbrMetallicRoughness": {
        "metallicFactor": 0.0,
        "roughnessFactor": 0.6
      }
    }
  ],
  "meshes": [
    {
      "name": "male-model__0",
      "primitives": [
        {
          "attributes": {
            "JOINTS_0": 5,
            "NORMAL": 1,
            "POSITION": 0,
            "TEXCOORD_0": 2,
            "WEIGHTS_0": 6
          },
          "indices": 3,
          "material": 0,
          "mode": 4
        }
      ]
    }
  ],
  "nodes": [
    {
      "children": [
        1
      ],
      "matrix": [
        1.0,
        0.0,
        0.0,
        0.0,
        0.0,
        2.220446049250313e-16,
        -1.0,
        0.0,
        0.0,
        1.0,
        2.220446049250313e-16,
        0.0,
        0.0,
        0.0,
        0.0,
        1.0
      ],
      "name": "Sketchfab_model"
    },
    {
      "children": [
        2
      ],
      "matrix": [
        0.009999999776482582,
        0.0,
        0.0,
        0.0,
        0.0,
        0.0,
        0.009999999776482582,
        0.0,
        0.0,
        -0.009999999776482582,
        0.0,
        0.0,
        0.0,
        0.0,
        0.0,
        1.0
      ],
      "name": "0bd5d7fa69b448c3ae57da30db132415.fbx"
    },
    {
      "children": [
        3
      ],
      "name": "RootNode"
    },
    {
      "children": [
        4
      ],
      "matrix": [
        100.0,
        0.0,
        0.0,
        0.0,
        0.0,
        -1.629206793918314e-05,
        -99.99999999999868,
        0.0,
        0.0,
        99.99999999999868,
        -1.629206793918314e-05,
        0.0,
        0.0,
        0.0,
        0.0,
        1.0
      ],
      "name": "rig_male"
    },
    {
      "children": [
        5,
        43,
        42
      ],
      "name": "Object_4"
    },
    {
      "children": [
        6
      ],
      "name": "_rootJoint"
    },
    {
      "children": [
        7,
        34,
        35,
        36,
        37,
        38,
        39,
        40,
        41
      ],
      "name": "root_01",
      "rotation": [
        0.7071068286895752,
        0.0,
        0.0,
        0.7071067094802856
      ]
    },
    {
      "children": [
        8,
        17
      ],
      "name": "spine_01_02",
      "rotation": [
        -0.021623019129037857,
        5.434879372577586e-17,
        5.434879372577586e-17,
        0.9997662901878357
      ],
      "scale": [
        1.0,
        1.0,
        0.9999999403953552
      ],
      "translation": [
        0.0,
        0.9258394241333008,
        0.0
      ]
    },
    {
      "children": [
        9,
        13
      ],
      "name": "pelvis_03",
      "rotation": [
        0.9997662901878357,
        -5.434877718216361e-17,
        5.43478408137102e-17,
        -0.021622957661747932
      ],
      "scale": [
        1.0,
        1.0000001192092896,
        1.0000008344650269
      ],
      "translation": [
        1.652220552432125e-24,
        -2.0114465648646274e-11,
        4.647908169452819e-10
      ]
    },
    {
      "children": [
        10
      ],
      "name": "thigh.L_04",
      "rotation": [
        -0.027943216264247894,
        -0.06617993861436844,
        -0.13779756426811218,
        0.9878519177436829
      ],
      "scale": [
        1.0000001192092896,
        1.0,
        1.0
      ],
      "translation": [
        0.09386372566223145,
        0.0842369794845581,
        1.1317970560753565e-08
      ]
    },
    {
      "children": [
        11
      ],
      "name": "shin.L_05",
      "rotation": [
        0.05531907454133034,
        0.0029843617230653763,
        -0.006989100947976112,
        0.9984397888183594
      ],
      "scale": [
        1.0,
        0.9999993443489075,
        0.9999995827674866
      ],
      "translation": [
        3.958120942115784e-09,
        0.42052558064460754,
        0.0
      ]
    },
    {
      "children": [
        12
      ],
      "name": "foot.L_06",
      "rotation": [
        -0.5449191927909851,
        0.006228986196219921,
        0.03724326938390732,
        0.8376379013061523
      ],
      "scale": [
        0.9999999403953552,
        0.9999998211860657,
        1.0
      ],
      "translation": [
        1.210719347000122e-08,
        0.35305339097976685,
        -6.51925802230835e-09
      ]
    },
    {
      "name": "toe.L_07",
      "rotation": [
        -0.11405903100967407,
        -0.008914904668927193,
        -0.025811893865466118,
        0.9930986166000366
      ],
      "scale": [
        0.9999998807907104,
        0.9999999403953552,
        0.9999998807907104
      ],
      "translation": [
        4.6566128730773926e-09,
        0.12005308270454407,
        -7.450580596923828e-09
      ]
    },
    {
      "children": [
        14
      ],
      "name": "thigh.R_08",
      "rotation": [
        -0.027943216264247894,
        0.06617995351552963,
        0.13779756426811218,
        0.9878519177436829
      ],
      "scale": [
        1.0000001192092896,
        1.0,
        1.0
      ],
      "translation": [
        -0.09386372566223145,
        0.0842369794845581,
        1.1317970560753565e-08
      ]
    },
    {
      "children": [
        15
      ],
      "name": "shin.R_09",
      "rotation": [
        0.05531907081604004,
        -0.0029843649826943874,
        0.006989102344959974,
        0.9984397888183594
      ],
      "scale": [
        0.9999999403953552,
        0.9999992251396179,
        0.9999995231628418
      ],
      "translation": [
        1.1175870895385742e-08,
        0.42052555084228516,
        1.862645149230957e-09
      ]
    },
    {
      "children": [
        16
      ],
      "name": "foot.R_010",
      "rotation": [
        -0.5449191927909851,
        -0.006228983402252197,
        -0.03724326938390732,
        0.8376379013061523
      ],
      "scale": [
        0.9999999403953552,
        0.9999998211860657,
        1.0
      ],
      "translation": [
        1.7113052308559418e-08,
        0.35305339097976685,
        -1.6298145055770874e-09
      ]
    },
    {
      "name": "toe.R_011",
      "rotation": [
        -0.11405902355909348,
        0.00891491025686264,
        0.02581189014017582,
        0.9930986166000366
      ],
      "scale": [
        0.9999998807907104,
        0.9999999403953552,
        0.9999998807907104
      ],
      "translation": [
        -9.313225191043273e-10,
        0.12005308270454407,
        -7.450580596923828e-09
      ]
    },
    {
      "children": [
        18
      ],
      "name": "spine_02_012",
      "rotation": [
        -0.026233050972223282,
        1.1916822728608167e-07,
        -3.127222480969749e-09,
        0.9996558427810669
      ],
      "scale": [
        1.0,
        0.9999999403953552,
        1.0
      ],
      "translation": [
        -3.2570236619275465e-24,
        0.17635786533355713,
        4.656612873077393e-10
      ]
    },
    {
      "children": [
        19,
        20,
        27
      ],
      "name": "spine_03_013",
      "rotation": [
        0.13925710320472717,
        2.1296822337872785e-14,
        3.32014806758707e-08,
        0.9902562499046326
      ],
      "scale": [
        1.0,
        1.0000001192092896,
        1.0
      ],
      "translation": [
        -4.038482838886106e-15,
        0.18978945910930634,
        5.587935447692871e-09
      ]
    },
    {
      "name": "head_014",
      "rotation": [
        0.045438364148139954,
        1.4069273158068447e-14,
        1.0833348440542068e-08,
        0.998967170715332
      ],
      "scale": [
        1.0,
        0.9999998807907104,
        1.0
      ],
      "translation": [
        -8.995265436109647e-16,
        0.21448126435279846,
        -2.7939677238464355e-09
      ]
    },
    {
      "children": [
        21
      ],
      "name": "shoulder.L_015",
      "rotation": [
        -0.15894410014152527,
        0.1733851134777069,
        -0.675337016582489,
        0.6989951729774475
      ],
      "scale": [
        0.9999998807907104,
        1.0,
        1.0
      ],
      "translation": [
        0.03890914097428322,
        0.09626680612564087,
        0.055511828511953354
      ]
    },
    {
      "children": [
        22
      ],
      "name": "upper_arm.L_016",
      "rotation": [
        0.18965919315814972,
        0.0672299712896347,
        -0.05972364544868469,
        0.9777231812477112
      ],
      "scale": [
        1.000000238418579,
        1.0000004768371582,
        0.9999998211860657
      ],
      "translation": [
        0.03903733566403389,
        0.18192066252231598,
        0.015843918547034264
      ]
    },
    {
      "children": [
        23
      ],
      "name": "forearm.L_017",
      "rotation": [
        0.1389392763376236,
        -0.13515983521938324,
        0.06076361611485481,
        0.9791504144668579
      ],
      "scale": [
        0.9999998211860657,
        0.9999998807907104,
        1.000000238418579
      ],
      "translation": [
        -8.568167686462402e-08,
        0.2449314296245575,
        -4.470348358154297e-08
      ]
    },
    {
      "children": [
        24,
        25
      ],
      "name": "hand.L_018",
      "rotation": [
        -0.05859304964542389,
        -0.12723980844020844,
        -0.008102457970380783,
        0.9901067018508911
      ],
      "translation": [
        -4.2549800127744675e-08,
        0.2371738702058792,
        1.6763806343078613e-08
      ]
    },
    {
      "name": "fingers.L_019",
      "rotation": [
        -0.05907219648361206,
        0.045737117528915405,
        -0.34162047505378723,
        0.9368639588356018
      ],
      "scale": [
        1.0,
        0.9999998807907104,
        1.0
      ],
      "translation": [
        1.809094101190567e-07,
        0.12213127315044403,
        -5.774199962615967e-08
      ]
    },
    {
      "children": [
        26
      ],
      "name": "thumb_01.L_020",
      "rotation": [
        0.3206599950790405,
        0.37830936908721924,
        -0.08536012470722198,
        0.8641601800918579
      ],
      "scale": [
        1.0,
        1.0000001192092896,
        1.0000001192092896
      ],
      "translation": [
        0.008028222247958183,
        0.01486446987837553,
        0.01876833848655224
      ]
    },
    {
      "name": "thumb_02.L_021",
      "rotation": [
        -0.2167786955833435,
        0.00266996375285089,
        -0.12642265856266022,
        0.9679964780807495
      ],
      "scale": [
        1.000000238418579,
        1.0,
        1.0000001192092896
      ],
      "translation": [
        1.4901161193847656e-07,
        0.06930609047412872,
        5.960464477539063e-08
      ]
    },
    {
      "children": [
        28
      ],
      "name": "shoulder.R_022",
      "rotation": [
        -0.1589442938566208,
        -0.17338529229164124,
        0.675337016582489,
        0.6989951133728027
      ],
      "scale": [
        0.9999998807907104,
        0.9999998211860657,
        0.9999998807907104
      ],
      "translation": [
        -0.03890916332602501,
        0.09626680612564087,
        0.05551181733608246
      ]
    },
    {
      "children": [
        29
      ],
      "name": "upper_arm.R_023",
      "rotation": [
        0.18965987861156464,
        -0.06722988933324814,
        0.0597231462597847,
        0.9777231812477112
      ],
      "scale": [
        1.0000001192092896,
        0.9999998211860657,
        0.9999997615814209
      ],
      "translation": [
        -0.03903770446777344,
        0.1819206029176712,
        0.015843959525227547
      ]
    },
    {
      "children": [
        30
      ],
      "name": "forearm.R_00",
      "rotation": [
        0.13893772661685944,
        0.13515986502170563,
        -0.0607629232108593,
        0.979150652885437
      ],
      "scale": [
        0.9999997019767761,
        1.000000238418579,
        1.0000004768371582
      ],
      "translation": [
        7.636845111846924e-08,
        0.24493147432804108,
        -3.3527612686157227e-08
      ]
    },
    {
      "children": [
        31,
        32
      ],
      "name": "hand.R_024",
      "rotation": [
        -0.05859307199716568,
        0.12723977863788605,
        0.008102436549961567,
        0.9901067018508911
      ],
      "scale": [
        1.0,
        0.9999999403953552,
        1.0
      ],
      "translation": [
        -8.754432201385498e-08,
        0.23717395961284637,
        -1.1175870895385742e-08
      ]
    },
    {
      "name": "fingers.R_025",
      "rotation": [
        -0.05907215550541878,
        -0.0457371287047863,
        0.3416205048561096,
        0.9368639588356018
      ],
      "scale": [
        0.9999999403953552,
        0.9999999403953552,
        1.0
      ],
      "translation": [
        -1.1641532182693481e-08,
        0.12213130295276642,
        -2.7939677238464355e-09
      ]
    },
    {
      "children": [
        33
      ],
      "name": "thumb_01.R_026",
      "rotation": [
        0.3206600248813629,
        -0.37830936908721924,
        0.08536012470722198,
        0.8641601800918579
      ],
      "scale": [
        1.0,
        0.9999998211860657,
        0.9999999403953552
      ],
      "translation": [
        -0.008028198964893818,
        0.014864354394376278,
        0.01876835897564888
      ]
    },
    {
      "name": "thumb_02.R_027",
      "rotation": [
        -0.2167786955833435,
        -0.0026699595618993044,
        0.1264226883649826,
        0.9679964780807495
      ],
      "scale": [
        1.0000001192092896,
        1.0,
        1.0
      ],
      "translation": [
        -3.166496753692627e-08,
        0.06930607557296753,
        -4.470348358154297e-08
      ]
    },
    {
      "name": "TAR_knee.L_028",
      "rotation": [
        0.7052971124649048,
        0.050556279718875885,
        0.050556279718875885,
        0.7052971720695496
      ],
      "translation": [
        0.24838881194591522,
        0.4376890957355499,
        0.3559316396713257
      ]
    },
    {
      "name": "IK_hand.L_029",
      "rotation": [
        0.0,
        -0.07166483998298645,
        0.0,
        0.9974287748336792
      ],
      "translation": [
        0.6845771670341492,
        1.3293604850769043,
        -0.016534121707081795
      ]
    },
    {
      "name": "IK_foot.L_030",
      "rotation": [
        0.9885699152946472,
        0.1332838088274002,
        -0.06997378170490265,
        0.008281894028186798
      ],
      "scale": [
        0.9999992847442627,
        1.0,
        1.0
      ],
      "translation": [
        0.30673468112945557,
        0.09920910000801086,
        -0.010764471255242825
      ]
    },
    {
      "name": "TAR_elbow.L_031",
      "rotation": [
        -0.39213553071022034,
        0.588412880897522,
        -0.588412880897522,
        0.39213553071022034
      ],
      "translation": [
        0.45108044147491455,
        1.3340635299682617,
        -0.3381488025188446
      ]
    },
    {
      "name": "TAR_knee.R_032",
      "rotation": [
        0.7052971124649048,
        -0.050556279718875885,
        -0.050556279718875885,
        0.7052971720695496
      ],
      "translation": [
        -0.24838881194591522,
        0.4376890957355499,
        0.3559316396713257
      ]
    },
    {
      "name": "IK_hand.R_033",
      "rotation": [
        0.0,
        0.07166483998298645,
        0.0,
        0.9974287748336792
      ],
      "translation": [
        -0.6845771670341492,
        1.3293604850769043,
        -0.016534121707081795
      ]
    },
    {
      "name": "IK_foot.R_034",
      "rotation": [
        0.9885699152946472,
        -0.1332838088274002,
        0.06997378170490265,
        0.008281894028186798
      ],
      "scale": [
        0.9999992847442627,
        1.0,
        1.0
      ],
      "translation": [
        -0.30673468112945557,
        0.09920910000801086,
        -0.010764471255242825
      ]
    },
    {
      "name": "TAR_elbow.R_035",
      "rotation": [
        0.39213553071022034,
        0.588412880897522,
        -0.588412880897522,
        -0.39213553071022034
      ],
      "translation": [
        -0.45108044147491455,
        1.3340635299682617,
        -0.3381488025188446
      ]
    },
    {
      "matrix": [
        100.0,
        0.0,
        0.0,
        0.0,
        0.0,
        6.123233995736766e-15,
        -100.0,
        0.0,
        0.0,
        100.0,
        6.123233995736766e-15,
        0.0,
        0.0,
        0.0,
        0.0,
        1.0
      ],
      "name": "Object_42"
    },
    {
      "mesh": 0,
      "name": "Object_43",
      "skin": 0
    }
  ],
  "scene": 0,
  "scenes": [
    {
      "name": "Sketchfab_Scene",
      "nodes": [
        0
      ]
    }
  ],
  "skins": [
    {
      "inverseBindMatrices": 4,
      "joints": [
        5,
        6,
        7,
        8,
        9,
        10,
        11,
        12,
        13,
        14,
        15,
        16,
        17,
        18,
        19,
        20,
        21,
        22,
        23,
        24,
        25,
        26,
        27,
        28,
        29,
        30,
        31,
        32,
        33,
        34,
        35,
        36,
        37,
        38,
        39,
        40,
        41
      ],
      "skeleton": 5
    }
  ]
}
